<mxfile host="app.diagrams.net" modified="2023-12-04T09:43:26.740Z" agent="Mozilla/5.0 (Linux; Android 10; K) AppleWebKit/537.36 (KHTML, like Gecko) Chrome/117.0.0.0 Mobile Safari/537.36" version="22.1.5" etag="9BAe0XMgNMnpjIdJm2qE" type="github">
  <diagram name="Страница — 1" id="8OuT_RT98LU1xE2-PkRf">
    <mxGraphModel>
      <root>
        <mxCell id="0" />
        <mxCell id="1" parent="0" />
      </root>
    </mxGraphModel>
  </diagram>
</mxfile>
